<svg xmlns="http://www.w3.org/2000/svg" xmlns:xlink="http://www.w3.org/1999/xlink" width="850" height="407.36"><rect width="850" height="407.36" rx="5" ry="5" class="a"/><svg y="0%" x="0%"><circle cx="20" cy="20" r="6" fill="#ff5f58"/><circle cx="40" cy="20" r="6" fill="#ffbd2e"/><circle cx="60" cy="20" r="6" fill="#18c132"/></svg><svg height="347.36" viewBox="0 0 81 34.736" width="810" x="15" xmlns="http://www.w3.org/2000/svg" xmlns:xlink="http://www.w3.org/1999/xlink" y="50"><style>@keyframes q{0%{transform:translateX(0)}3%{transform:translateX(-81px)}3.1%{transform:translateX(-162px)}3.2%{transform:translateX(-243px)}3.3%{transform:translateX(-486px)}11%{transform:translateX(-648px)}12.2%{transform:translateX(-810px)}14.2%{transform:translateX(-1053px)}18.3%{transform:translateX(-1296px)}19.7%{transform:translateX(-1458px)}21.5%{transform:translateX(-1620px)}23.5%{transform:translateX(-1782px)}24.8%{transform:translateX(-1944px)}28%{transform:translateX(-2187px)}28.9%{transform:translateX(-2349px)}32%{transform:translateX(-2592px)}33.4%{transform:translateX(-2754px)}34.9%{transform:translateX(-2916px)}37.6%{transform:translateX(-3159px)}40.6%{transform:translateX(-3321px)}41.7%{transform:translateX(-3564px)}43.3%{transform:translateX(-3645px)}45.8%{transform:translateX(-3807px)}47.1%{transform:translateX(-3969px)}50.2%{transform:translateX(-4293px)}63.9%{transform:translateX(-4536px)}64.3%{transform:translateX(-4779px)}64.4%{transform:translateX(-4941px)}to{transform:translateX(-5103px)}}.a{fill:#282d35}.f{fill:#dbab79}.g{fill:#e88388}.h{fill:#66c2cd}.i{fill:#a8cc8c}.j{fill:#ff5f5f}.k{fill:#9e9e9e}.l{fill:#afafff}.m{fill:#b9c0cb}.n{fill:#d0d0d0}</style><g font-size="1.67" font-family="Monaco,Consolas,Menlo,'Bitstream Vera Sans Mono','Powerline Symbols',monospace"><defs><symbol id="1"><text y="1.67" class="f">⚡</text><text x="1.002" y="1.67" class="g">MBP</text><text x="5.01" y="1.67" class="h">~</text><text x="7.014" y="1.67" class="g">❯</text><text x="8.016" y="1.67" class="f">❯</text><text x="9.018" y="1.67" class="i">❯</text><text x="12.024" y="1.67" class="j">UD</text><text x="14.028" y="1.67" class="k">Therapy</text><text x="22.044" y="1.67" class="k">-s</text><text x="25.05" y="1.67" class="k">python</text><text x="72.144" y="1.67" class="k">000:11:21</text></symbol><symbol id="2"><text y="1.67" class="f">⚡</text><text x="1.002" y="1.67" class="g">MBP</text><text x="5.01" y="1.67" class="h">~</text><text x="7.014" y="1.67" class="g">❯</text><text x="8.016" y="1.67" class="f">❯</text><text x="9.018" y="1.67" class="i">❯</text><text x="12.024" y="1.67" class="j">UDT</text><text x="15.03" y="1.67" class="k">herapy</text><text x="22.044" y="1.67" class="k">-s</text><text x="25.05" y="1.67" class="k">python</text><text x="72.144" y="1.67" class="k">000:11:21</text></symbol><symbol id="3"><text y="1.67" class="f">⚡</text><text x="1.002" y="1.67" class="g">MBP</text><text x="5.01" y="1.67" class="h">~</text><text x="7.014" y="1.67" class="g">❯</text><text x="8.016" y="1.67" class="f">❯</text><text x="9.018" y="1.67" class="i">❯</text><text x="12.024" y="1.67" class="l">UDTh</text><text x="16.032" y="1.67" class="k">erapy</text><text x="22.044" y="1.67" class="k">-s</text><text x="25.05" y="1.67" class="k">python</text><text x="72.144" y="1.67" class="k">000:11:21</text></symbol><symbol id="4"><text y="1.67" class="f">⚡</text><text x="1.002" y="1.67" class="g">MBP</text><text x="5.01" y="1.67" class="h">~</text><text x="7.014" y="1.67" class="g">❯</text><text x="8.016" y="1.67" class="f">❯</text><text x="9.018" y="1.67" class="i">❯</text><text x="12.024" y="1.67" class="j">UDThe</text><text x="17.034" y="1.67" class="k">rapy</text><text x="22.044" y="1.67" class="k">-s</text><text x="25.05" y="1.67" class="k">python</text><text x="72.144" y="1.67" class="k">000:11:21</text></symbol><symbol id="5"><text y="1.67" class="f">⚡</text><text x="1.002" y="1.67" class="g">MBP</text><text x="5.01" y="1.67" class="h">~</text><text x="7.014" y="1.67" class="g">❯</text><text x="8.016" y="1.67" class="f">❯</text><text x="9.018" y="1.67" class="i">❯</text><text x="12.024" y="1.67" class="j">UDTher</text><text x="18.036" y="1.67" class="k">apy</text><text x="22.044" y="1.67" class="k">-s</text><text x="25.05" y="1.67" class="k">python</text><text x="72.144" y="1.67" class="k">000:11:21</text></symbol><symbol id="6"><text y="1.67" class="f">⚡</text><text x="1.002" y="1.67" class="g">MBP</text><text x="5.01" y="1.67" class="h">~</text><text x="7.014" y="1.67" class="g">❯</text><text x="8.016" y="1.67" class="f">❯</text><text x="9.018" y="1.67" class="i">❯</text><text x="12.024" y="1.67" class="j">UDThera</text><text x="19.038" y="1.67" class="k">py</text><text x="22.044" y="1.67" class="k">-s</text><text x="25.05" y="1.67" class="k">python</text><text x="72.144" y="1.67" class="k">000:11:21</text></symbol><symbol id="7"><text y="1.67" class="f">⚡</text><text x="1.002" y="1.67" class="g">MBP</text><text x="5.01" y="1.67" class="h">~</text><text x="7.014" y="1.67" class="g">❯</text><text x="8.016" y="1.67" class="f">❯</text><text x="9.018" y="1.67" class="i">❯</text><text x="12.024" y="1.67" class="j">UDTherap</text><text x="20.04" y="1.67" class="k">y</text><text x="22.044" y="1.67" class="k">-s</text><text x="25.05" y="1.67" class="k">python</text><text x="72.144" y="1.67" class="k">000:11:21</text></symbol><symbol id="8"><text y="1.67" class="f">⚡</text><text x="1.002" y="1.67" class="g">MBP</text><text x="5.01" y="1.67" class="h">~</text><text x="7.014" y="1.67" class="g">❯</text><text x="8.016" y="1.67" class="f">❯</text><text x="9.018" y="1.67" class="i">❯</text><text x="12.024" y="1.67" class="j">UDTherapy</text><text x="22.044" y="1.67" class="k">-s</text><text x="25.05" y="1.67" class="k">python</text><text x="72.144" y="1.67" class="k">000:11:21</text></symbol><symbol id="9"><text y="1.67" class="f">⚡</text><text x="1.002" y="1.67" class="g">MBP</text><text x="5.01" y="1.67" class="h">~</text><text x="7.014" y="1.67" class="g">❯</text><text x="8.016" y="1.67" class="f">❯</text><text x="9.018" y="1.67" class="i">❯</text><text x="12.024" y="1.67" class="l">UDTherapy</text><text x="22.044" y="1.67" class="k">-s</text><text x="25.05" y="1.67" class="k">python</text><text x="72.144" y="1.67" class="k">000:11:21</text></symbol><symbol id="10"><text y="1.67" class="f">⚡</text><text x="1.002" y="1.67" class="g">MBP</text><text x="5.01" y="1.67" class="h">~</text><text x="7.014" y="1.67" class="g">❯</text><text x="8.016" y="1.67" class="f">❯</text><text x="9.018" y="1.67" class="i">❯</text><text x="12.024" y="1.67" class="l">UDTherapy</text><text x="22.044" y="1.67" class="m">-</text><text x="23.046" y="1.67" class="k">s</text><text x="25.05" y="1.67" class="k">python</text><text x="72.144" y="1.67" class="k">000:11:21</text></symbol><symbol id="11"><text y="1.67" class="f">⚡</text><text x="1.002" y="1.67" class="g">MBP</text><text x="5.01" y="1.67" class="h">~</text><text x="7.014" y="1.67" class="g">❯</text><text x="8.016" y="1.67" class="f">❯</text><text x="9.018" y="1.67" class="i">❯</text><text x="12.024" y="1.67" class="l">UDTherapy</text><text x="22.044" y="1.67" class="n">-s</text><text x="25.05" y="1.67" class="k">python</text><text x="72.144" y="1.67" class="k">000:11:21</text></symbol><symbol id="12"><text y="1.67" class="f">⚡</text><text x="1.002" y="1.67" class="g">MBP</text><text x="5.01" y="1.67" class="h">~</text><text x="7.014" y="1.67" class="g">❯</text><text x="8.016" y="1.67" class="f">❯</text><text x="9.018" y="1.67" class="i">❯</text><text x="12.024" y="1.67" class="l">UDTherapy</text><text x="22.044" y="1.67" class="n">-s</text><text x="25.05" y="1.67" class="m">p</text><text x="26.052" y="1.67" class="k">ython</text><text x="72.144" y="1.67" class="k">000:11:21</text></symbol><symbol id="13"><text y="1.67" class="f">⚡</text><text x="1.002" y="1.67" class="g">MBP</text><text x="5.01" y="1.67" class="h">~</text><text x="7.014" y="1.67" class="g">❯</text><text x="8.016" y="1.67" class="f">❯</text><text x="9.018" y="1.67" class="i">❯</text><text x="12.024" y="1.67" class="l">UDTherapy</text><text x="22.044" y="1.67" class="n">-s</text><text x="25.05" y="1.67" class="n">py</text><text x="27.054" y="1.67" class="k">thon</text><text x="72.144" y="1.67" class="k">000:11:21</text></symbol><symbol id="14"><text y="1.67" class="f">⚡</text><text x="1.002" y="1.67" class="g">MBP</text><text x="5.01" y="1.67" class="h">~</text><text x="7.014" y="1.67" class="g">❯</text><text x="8.016" y="1.67" class="f">❯</text><text x="9.018" y="1.67" class="i">❯</text><text x="12.024" y="1.67" class="l">UDTherapy</text><text x="22.044" y="1.67" class="n">-s</text><text x="25.05" y="1.67" class="n">pyt</text><text x="28.056" y="1.67" class="k">hon</text><text x="72.144" y="1.67" class="k">000:11:21</text></symbol><symbol id="15"><text y="1.67" class="f">⚡</text><text x="1.002" y="1.67" class="g">MBP</text><text x="5.01" y="1.67" class="h">~</text><text x="7.014" y="1.67" class="g">❯</text><text x="8.016" y="1.67" class="f">❯</text><text x="9.018" y="1.67" class="i">❯</text><text x="12.024" y="1.67" class="l">UDTherapy</text><text x="22.044" y="1.67" class="n">-s</text><text x="25.05" y="1.67" class="n">pytho</text><text x="30.06" y="1.67" class="k">n</text><text x="72.144" y="1.67" class="k">000:11:21</text></symbol><symbol id="16"><text y="1.67" class="f">⚡</text><text x="1.002" y="1.67" class="g">MBP</text><text x="5.01" y="1.67" class="h">~</text><text x="7.014" y="1.67" class="g">❯</text><text x="8.016" y="1.67" class="f">❯</text><text x="9.018" y="1.67" class="i">❯</text><text x="12.024" y="1.67" class="l">UDTherapy</text><text x="22.044" y="1.67" class="n">-s</text><text x="25.05" y="1.67" class="n">python</text><text x="72.144" y="1.67" class="k">000:11:21</text></symbol><symbol id="17"><text x="1.002" y="1.67" class="g">Word:</text><text x="7.014" y="1.67" class="m">Python</text></symbol><symbol id="18"><text x="1.002" y="1.67" class="h">Def:</text><text x="6.012" y="1.67" class="m">Python</text><text x="13.026" y="1.67" class="m">is</text><text x="16.032" y="1.67" class="m">a</text><text x="18.036" y="1.67" class="m">powerful</text><text x="27.054" y="1.67" class="m">high-level</text><text x="38.076" y="1.67" class="m">interpreted</text><text x="50.1" y="1.67" class="m">language.</text></symbol><symbol id="19"><text x="6.012" y="1.67" class="m">python&apos;s</text><text x="15.03" y="1.67" class="m">design</text><text x="22.044" y="1.67" class="m">is</text><text x="25.05" y="1.67" class="m">notably</text><text x="33.066" y="1.67" class="m">clean,</text><text x="40.08" y="1.67" class="m">elegant,</text><text x="49.098" y="1.67" class="m">and</text><text x="53.106" y="1.67" class="m">well</text><text x="58.116" y="1.67" class="m">thought</text></symbol><symbol id="20"><text x="6.012" y="1.67" class="m">through;</text><text x="15.03" y="1.67" class="m">it</text><text x="18.036" y="1.67" class="m">tends</text><text x="24.048" y="1.67" class="m">to</text><text x="27.054" y="1.67" class="m">attract</text><text x="35.07" y="1.67" class="m">the</text><text x="39.078" y="1.67" class="m">sort</text><text x="44.088" y="1.67" class="m">of</text><text x="47.094" y="1.67" class="m">programmers</text><text x="59.118" y="1.67" class="m">who</text></symbol><symbol id="21"><text x="6.012" y="1.67" class="m">find</text><text x="11.022" y="1.67" class="m">perl</text><text x="16.032" y="1.67" class="m">grubby</text><text x="23.046" y="1.67" class="m">and</text><text x="27.054" y="1.67" class="m">exiguous.</text></symbol><symbol id="22"><text x="1.002" y="1.67" class="f">Ex:</text><text x="5.01" y="1.67" class="m">&quot;#!/usr/bin/python</text><text x="24.048" y="1.67" class="m">print</text><text x="30.06" y="1.67" class="m">&quot;Hello</text><text x="37.074" y="1.67" class="m">World&quot;</text><text x="44.088" y="1.67" class="m">&quot;</text></symbol><symbol id="23"><text y="1.67" class="f">⚡</text><text x="1.002" y="1.67" class="g">MBP</text><text x="5.01" y="1.67" class="h">~</text><text x="7.014" y="1.67" class="g">❯</text><text x="8.016" y="1.67" class="f">❯</text><text x="9.018" y="1.67" class="i">❯</text><text x="72.144" y="1.67" class="k">00:11:27</text></symbol><symbol id="a"><path fill="transparent" d="M0 0h81v16H0z"/></symbol><symbol id="b"><path fill="#6f7683" d="M0 0h1.102v2.171H0z"/></symbol></defs><path class="a" d="M0 0h81v34.736H0z"/><g style="animation-duration:9.531716s;animation-iteration-count:infinite;animation-name:q;animation-timing-function:steps(1,end)"><svg width="5184"><svg><use xlink:href="#a"/><use xlink:href="#b" x="-.004"/></svg><svg x="81"><use xlink:href="#a"/><use xlink:href="#b" x="-.004"/></svg><svg x="162"><use xlink:href="#a"/><use xlink:href="#b" x="-.004"/></svg><svg x="243"><use xlink:href="#a"/><use xlink:href="#b" x="-.004"/></svg><svg x="324"><use xlink:href="#a"/><use xlink:href="#b" x="-.004"/></svg><svg x="405"><use xlink:href="#a"/><use xlink:href="#b" x="-.004"/></svg><svg x="486"><use xlink:href="#a"/><use xlink:href="#b" x="11.996"/><text y="1.67" class="f">⚡</text><text x="1.002" y="1.67" class="g">MBP</text><text x="5.01" y="1.67" class="h">~</text><text x="7.014" y="1.67" class="g">❯</text><text x="8.016" y="1.67" class="f">❯</text><text x="9.018" y="1.67" class="i">❯</text><text x="72.144" y="1.67" class="k">00:11:21</text></svg><svg x="567"><use xlink:href="#a"/><use xlink:href="#b" x="12.996"/><text y="1.67" class="f">⚡</text><text x="1.002" y="1.67" class="g">MBP</text><text x="5.01" y="1.67" class="h">~</text><text x="7.014" y="1.67" class="g">❯</text><text x="8.016" y="1.67" class="f">❯</text><text x="9.018" y="1.67" class="i">❯</text><text x="12.024" y="1.67" class="m">U</text><text x="72.144" y="1.67" class="k">000:11:21</text></svg><svg x="648"><use xlink:href="#a"/><use xlink:href="#b" x="12.996"/><text y="1.67" class="f">⚡</text><text x="1.002" y="1.67" class="g">MBP</text><text x="5.01" y="1.67" class="h">~</text><text x="7.014" y="1.67" class="g">❯</text><text x="8.016" y="1.67" class="f">❯</text><text x="9.018" y="1.67" class="i">❯</text><text x="12.024" y="1.67" class="j">U</text><text x="13.026" y="1.67" class="k">DTherapy</text><text x="22.044" y="1.67" class="k">-s</text><text x="25.05" y="1.67" class="k">python</text><text x="72.144" y="1.67" class="k">000:11:21</text></svg><svg x="729"><use xlink:href="#a"/><use xlink:href="#b" x="13.996"/><use xlink:href="#1"/></svg><svg x="810"><use xlink:href="#a"/><use xlink:href="#b" x="13.996"/><use xlink:href="#1"/></svg><svg x="891"><use xlink:href="#a"/><use xlink:href="#b" x="14.996"/><use xlink:href="#2"/></svg><svg x="972"><use xlink:href="#a"/><use xlink:href="#b" x="14.996"/><use xlink:href="#2"/></svg><svg x="1053"><use xlink:href="#a"/><use xlink:href="#b" x="14.996"/><text y="1.67" class="f">⚡</text><text x="1.002" y="1.67" class="g">MBP</text><text x="5.01" y="1.67" class="h">~</text><text x="7.014" y="1.67" class="g">❯</text><text x="8.016" y="1.67" class="f">❯</text><text x="9.018" y="1.67" class="i">❯</text><text x="12.024" y="1.67" class="l">UDT</text><text x="15.03" y="1.67" class="k">herapy</text><text x="22.044" y="1.67" class="k">-s</text><text x="25.05" y="1.67" class="k">python</text><text x="72.144" y="1.67" class="k">000:11:21</text></svg><svg x="1134"><use xlink:href="#a"/><use xlink:href="#b" x="15.996"/><use xlink:href="#3"/></svg><svg x="1215"><use xlink:href="#a"/><use xlink:href="#b" x="15.996"/><use xlink:href="#3"/></svg><svg x="1296"><use xlink:href="#a"/><use xlink:href="#b" x="15.996"/><text y="1.67" class="f">⚡</text><text x="1.002" y="1.67" class="g">MBP</text><text x="5.01" y="1.67" class="h">~</text><text x="7.014" y="1.67" class="g">❯</text><text x="8.016" y="1.67" class="f">❯</text><text x="9.018" y="1.67" class="i">❯</text><text x="12.024" y="1.67" class="j">UDTh</text><text x="16.032" y="1.67" class="k">erapy</text><text x="22.044" y="1.67" class="k">-s</text><text x="25.05" y="1.67" class="k">python</text><text x="72.144" y="1.67" class="k">000:11:21</text></svg><svg x="1377"><use xlink:href="#a"/><use xlink:href="#b" x="16.996"/><use xlink:href="#4"/></svg><svg x="1458"><use xlink:href="#a"/><use xlink:href="#b" x="16.996"/><use xlink:href="#4"/></svg><svg x="1539"><use xlink:href="#a"/><use xlink:href="#b" x="17.996"/><use xlink:href="#5"/></svg><svg x="1620"><use xlink:href="#a"/><use xlink:href="#b" x="17.996"/><use xlink:href="#5"/></svg><svg x="1701"><use xlink:href="#a"/><use xlink:href="#b" x="18.996"/><use xlink:href="#6"/></svg><svg x="1782"><use xlink:href="#a"/><use xlink:href="#b" x="18.996"/><use xlink:href="#6"/></svg><svg x="1863"><use xlink:href="#a"/><use xlink:href="#b" x="19.996"/><use xlink:href="#7"/></svg><svg x="1944"><use xlink:href="#a"/><use xlink:href="#b" x="19.996"/><use xlink:href="#7"/></svg><svg x="2025"><use xlink:href="#a"/><use xlink:href="#b" x="20.996"/><use xlink:href="#8"/></svg><svg x="2106"><use xlink:href="#a"/><use xlink:href="#b" x="20.996"/><use xlink:href="#8"/></svg><svg x="2187"><use xlink:href="#a"/><use xlink:href="#b" x="20.996"/><use xlink:href="#9"/></svg><svg x="2268"><use xlink:href="#a"/><use xlink:href="#b" x="21.996"/><use xlink:href="#9"/></svg><svg x="2349"><use xlink:href="#a"/><use xlink:href="#b" x="21.996"/><use xlink:href="#9"/></svg><svg x="2430"><use xlink:href="#a"/><use xlink:href="#b" x="22.996"/><use xlink:href="#10"/></svg><svg x="2511"><use xlink:href="#a"/><use xlink:href="#b" x="22.996"/><use xlink:href="#10"/></svg><svg x="2592"><use xlink:href="#a"/><use xlink:href="#b" x="22.996"/><text y="1.67" class="f">⚡</text><text x="1.002" y="1.67" class="g">MBP</text><text x="5.01" y="1.67" class="h">~</text><text x="7.014" y="1.67" class="g">❯</text><text x="8.016" y="1.67" class="f">❯</text><text x="9.018" y="1.67" class="i">❯</text><text x="12.024" y="1.67" class="l">UDTherapy</text><text x="22.044" y="1.67" class="n">-</text><text x="23.046" y="1.67" class="k">s</text><text x="25.05" y="1.67" class="k">python</text><text x="72.144" y="1.67" class="k">000:11:21</text></svg><svg x="2673"><use xlink:href="#a"/><use xlink:href="#b" x="23.996"/><use xlink:href="#11"/></svg><svg x="2754"><use xlink:href="#a"/><use xlink:href="#b" x="23.996"/><use xlink:href="#11"/></svg><svg x="2835"><use xlink:href="#a"/><use xlink:href="#b" x="24.996"/><use xlink:href="#11"/></svg><svg x="2916"><use xlink:href="#a"/><use xlink:href="#b" x="24.996"/><use xlink:href="#11"/></svg><svg x="2997"><use xlink:href="#a"/><use xlink:href="#b" x="25.996"/><use xlink:href="#12"/></svg><svg x="3078"><use xlink:href="#a"/><use xlink:href="#b" x="25.996"/><use xlink:href="#12"/></svg><svg x="3159"><use xlink:href="#a"/><use xlink:href="#b" x="25.996"/><text y="1.67" class="f">⚡</text><text x="1.002" y="1.67" class="g">MBP</text><text x="5.01" y="1.67" class="h">~</text><text x="7.014" y="1.67" class="g">❯</text><text x="8.016" y="1.67" class="f">❯</text><text x="9.018" y="1.67" class="i">❯</text><text x="12.024" y="1.67" class="l">UDTherapy</text><text x="22.044" y="1.67" class="n">-s</text><text x="25.05" y="1.67" class="n">p</text><text x="26.052" y="1.67" class="k">ython</text><text x="72.144" y="1.67" class="k">000:11:21</text></svg><svg x="3240"><use xlink:href="#a"/><use xlink:href="#b" x="26.996"/><use xlink:href="#13"/></svg><svg x="3321"><use xlink:href="#a"/><use xlink:href="#b" x="26.996"/><use xlink:href="#13"/></svg><svg x="3402"><use xlink:href="#a"/><use xlink:href="#b" x="27.996"/><use xlink:href="#14"/></svg><svg x="3483"><use xlink:href="#a"/><use xlink:href="#b" x="27.996"/><use xlink:href="#14"/></svg><svg x="3564"><use xlink:href="#a"/><use xlink:href="#b" x="27.996"/><use xlink:href="#14"/></svg><svg x="3645"><use xlink:href="#a"/><use xlink:href="#b" x="28.996"/><text y="1.67" class="f">⚡</text><text x="1.002" y="1.67" class="g">MBP</text><text x="5.01" y="1.67" class="h">~</text><text x="7.014" y="1.67" class="g">❯</text><text x="8.016" y="1.67" class="f">❯</text><text x="9.018" y="1.67" class="i">❯</text><text x="12.024" y="1.67" class="l">UDTherapy</text><text x="22.044" y="1.67" class="n">-s</text><text x="25.05" y="1.67" class="n">pyth</text><text x="29.058" y="1.67" class="k">on</text><text x="72.144" y="1.67" class="k">000:11:21</text></svg><svg x="3726"><use xlink:href="#a"/><use xlink:href="#b" x="29.996"/><use xlink:href="#15"/></svg><svg x="3807"><use xlink:href="#a"/><use xlink:href="#b" x="29.996"/><use xlink:href="#15"/></svg><svg x="3888"><use xlink:href="#a"/><use xlink:href="#b" x="30.996"/><use xlink:href="#16"/></svg><svg x="3969"><use xlink:href="#a"/><use xlink:href="#b" x="30.996"/><use xlink:href="#16"/></svg><svg x="4050"><use xlink:href="#a"/><use xlink:href="#b" x="-.004" y="2.146"/><use xlink:href="#16"/></svg><svg x="4131"><use xlink:href="#a"/><use xlink:href="#b" x="-.004" y="2.146"/><use xlink:href="#16"/></svg><svg x="4212"><use xlink:href="#a"/><use xlink:href="#b" x="-.004" y="2.146"/><use xlink:href="#16"/></svg><svg x="4293"><use xlink:href="#a"/><use xlink:href="#b" x="-.004" y="2.146"/><use xlink:href="#16"/></svg><svg x="4374"><use xlink:href="#a"/><use xlink:href="#b" x="-.004" y="15.172"/><use xlink:href="#16"/><use xlink:href="#17" y="2.171"/><use xlink:href="#18" y="4.342"/><use xlink:href="#19" y="6.513"/><use xlink:href="#20" y="8.684"/><use xlink:href="#21" y="10.855"/><use xlink:href="#22" y="13.026"/></svg><svg x="4455"><use xlink:href="#a"/><use xlink:href="#b" x="-.004" y="17.343"/><use xlink:href="#16"/><use xlink:href="#17" y="2.171"/><use xlink:href="#18" y="4.342"/><use xlink:href="#19" y="6.513"/><use xlink:href="#20" y="8.684"/><use xlink:href="#21" y="10.855"/><use xlink:href="#22" y="13.026"/></svg><svg x="4536"><use xlink:href="#a"/><use xlink:href="#b" x="-.004" y="17.343"/><use xlink:href="#16"/><use xlink:href="#17" y="2.171"/><use xlink:href="#18" y="4.342"/><use xlink:href="#19" y="6.513"/><use xlink:href="#20" y="8.684"/><use xlink:href="#21" y="10.855"/><use xlink:href="#22" y="13.026"/></svg><svg x="4617"><use xlink:href="#a"/><use xlink:href="#b" x="-.004" y="17.343"/><use xlink:href="#16"/><use xlink:href="#17" y="2.171"/><use xlink:href="#18" y="4.342"/><use xlink:href="#19" y="6.513"/><use xlink:href="#20" y="8.684"/><use xlink:href="#21" y="10.855"/><use xlink:href="#22" y="13.026"/></svg><svg x="4698"><use xlink:href="#a"/><use xlink:href="#b" x="-.004" y="17.343"/><use xlink:href="#16"/><use xlink:href="#17" y="2.171"/><use xlink:href="#18" y="4.342"/><use xlink:href="#19" y="6.513"/><use xlink:href="#20" y="8.684"/><use xlink:href="#21" y="10.855"/><use xlink:href="#22" y="13.026"/></svg><svg x="4779"><use xlink:href="#a"/><use xlink:href="#b" x="-.004" y="17.343"/><use xlink:href="#16"/><use xlink:href="#17" y="2.171"/><use xlink:href="#18" y="4.342"/><use xlink:href="#19" y="6.513"/><use xlink:href="#20" y="8.684"/><use xlink:href="#21" y="10.855"/><use xlink:href="#22" y="13.026"/></svg><svg x="4860"><use xlink:href="#a"/><use xlink:href="#b" x="-.004" y="17.343"/><use xlink:href="#16"/><use xlink:href="#17" y="2.171"/><use xlink:href="#18" y="4.342"/><use xlink:href="#19" y="6.513"/><use xlink:href="#20" y="8.684"/><use xlink:href="#21" y="10.855"/><use xlink:href="#22" y="13.026"/></svg><svg x="4941"><use xlink:href="#a"/><use xlink:href="#b" x="11.996" y="17.343"/><use xlink:href="#16"/><use xlink:href="#17" y="2.171"/><use xlink:href="#18" y="4.342"/><use xlink:href="#19" y="6.513"/><use xlink:href="#20" y="8.684"/><use xlink:href="#21" y="10.855"/><use xlink:href="#22" y="13.026"/><use xlink:href="#23" y="17.368"/></svg><svg x="5022"><use xlink:href="#a"/><use xlink:href="#b" x="-.004" y="19.514"/><use xlink:href="#16"/><use xlink:href="#17" y="2.171"/><use xlink:href="#18" y="4.342"/><use xlink:href="#19" y="6.513"/><use xlink:href="#20" y="8.684"/><use xlink:href="#21" y="10.855"/><use xlink:href="#22" y="13.026"/><use xlink:href="#23" y="17.368"/></svg><svg x="5103"><use xlink:href="#a"/><use xlink:href="#b" x="-.004" y="19.514"/><use xlink:href="#16"/><use xlink:href="#17" y="2.171"/><use xlink:href="#18" y="4.342"/><use xlink:href="#19" y="6.513"/><use xlink:href="#20" y="8.684"/><use xlink:href="#21" y="10.855"/><use xlink:href="#22" y="13.026"/><use xlink:href="#23" y="17.368"/></svg></svg></g></g></svg></svg>